<svg t="1757342551238" class="icon" viewBox="0 0 1024 1024" version="1.1" xmlns="http://www.w3.org/2000/svg" width="100"
    height="100">
    <path d="M512 512m-512 0a512 512 0 1 0 1024 0 512 512 0 1 0-1024 0Z" fill="#E0E0E0"></path>
    <path
        d="M380.0064 723.2h-44.0064a35.3024 35.3024 0 0 1-35.2-35.2V371.2c0-19.3536 15.8464-35.2 35.2-35.2h149.248l-109.1328 108.7744a17.7152 17.7152 0 0 0-3.1488 20.7616 14.7712 14.7712 0 0 0 3.1488 4.9408c0.7168 0.6912 0.7168 1.408 1.408 2.0992l126.3872 126.3616-123.904 124.2624zM723.2 688c0 19.3536-15.8464 35.2-35.2 35.2H537.344l109.1584-109.824a20.0192 20.0192 0 0 0 1.408-27.8016l-127.4624-127.4368 122.1376-122.1376h45.4144c19.3536 0 35.2 15.8464 35.2 35.2v316.8z"
        fill="#FFFFFF" fill-opacity=".779"></path>
    <path
        d="M542.2592 611.2512a15.104 15.104 0 0 0 3.1744-4.9408 17.7664 17.7664 0 0 0-3.1744-20.7872l-127.4112-127.3856 126.0032-126.0032a18.0224 18.0224 0 0 0 0-26.0096 17.7664 17.7664 0 0 0-12.672-5.3248h-192.1792a70.6048 70.6048 0 0 0-70.4 70.4v316.8a70.6048 70.6048 0 0 0 70.4 70.4h53.1456a17.9712 17.9712 0 0 0 13.0304-5.2736l29.568-29.9264 109.1584-109.824c0.6656-0.7168 0.6656-1.408 1.3568-2.1248z"
        fill="#FFFFFF"></path>
    <path
        d="M688 300.8h-54.1952a18.0224 18.0224 0 0 0-13.056 5.2736l-29.9008 29.9264-109.1072 108.7744c-9.088 9.8816-7.424 18.432 1.408 27.8016l126.3616 126.3616-127.7696 128.128a18.6624 18.6624 0 0 0 0 26.0096c3.5072 3.584 8.448 5.3248 13.0048 5.3248h193.2544a70.6048 70.6048 0 0 0 70.4-70.4V371.2a70.6048 70.6048 0 0 0-70.4-70.4z"
        fill="#FFFFFF"></path>
</svg>
